<svg width="213" height="80" viewBox="0 0 213 80" fill="none" xmlns="http://www.w3.org/2000/svg">
<g clip-path="url(#clip0_3961_143)">
<path d="M44.9851 0L47.8279 18.4058L44.9851 23.6036L42.1357 18.4058L44.9851 0ZM30.212 32.1468L27.1362 27.0822L9.78662 20.345L24.2868 32.0202L30.212 32.1535V32.1468ZM30.2054 49.2264L24.2801 49.3597L9.7733 61.0283L27.1229 54.291L30.1987 49.2264H30.2054ZM36.4501 25.896L36.317 19.9651L28.0816 11.3887L31.3837 22.8173L36.4435 25.896H36.4501ZM27.2561 9.95591L26.7434 6.6506L22.4959 1.69264L24.6596 7.85011L27.2561 9.94925V9.95591ZM40.5712 24.1901L41.9759 18.4324L36.9894 10.7956L36.4768 19.9052L40.5712 24.1901ZM36.8363 6.53065L35.0188 3.47191L34.9722 7.03045L36.55 9.19622L36.8363 6.53731V6.53065ZM23.1217 18.8056L27.2294 26.9489L32.915 28.6149L31.2573 22.9239L23.1217 18.8123V18.8056ZM21.95 17.6328L20.8648 15.1871L17.7624 13.4478L19.5 16.5532L21.95 17.6328ZM53.5135 25.896L58.5732 22.8173L61.882 11.3887L53.6466 19.9651L53.5135 25.896ZM67.4744 1.69264L63.2269 6.6506L62.7142 9.95591L65.3173 7.85677L67.481 1.6993L67.4744 1.69264ZM36.4501 55.4772L31.3904 58.5559L28.0883 69.9846L36.3237 61.4014L36.4568 55.4705L36.4501 55.4772ZM22.4959 79.6806L26.7434 74.7226L27.2561 71.4173L24.6596 73.5165L22.4959 79.6739V79.6806ZM53.4935 19.9052L52.9809 10.7956L47.9944 18.4324L49.3991 24.1901L53.4935 19.9052ZM54.9915 7.03045L54.9449 3.47191L53.1273 6.53065L53.4136 9.18956L54.9915 7.02378V7.03045ZM36.4701 61.4681L36.9828 70.571L41.9693 62.9408L40.5645 57.1832L36.4701 61.4681ZM34.9722 74.3428L35.0188 77.9013L36.8363 74.8426L36.55 72.1837L34.9722 74.3495V74.3428ZM58.713 22.9173L57.0486 28.6082L62.7342 26.9423L66.8419 18.7989L58.7064 22.9106L58.713 22.9173ZM72.2013 13.4411L69.0988 15.1804L68.0136 17.6261L70.4636 16.5465L72.2013 13.4411ZM23.1217 62.5676L31.2573 58.456L32.915 52.765L27.2294 54.431L23.1217 62.5743V62.5676ZM17.769 67.9321L20.8715 66.1928L21.95 63.7472L19.5067 64.8267L17.769 67.9321ZM22.7289 43.5354L27.9285 40.69L22.7289 37.8445L11.1914 40.69L22.7289 43.5354ZM6.41123 39.4838L0 40.69L6.41789 41.8961L9.53363 40.69L6.41789 39.4838H6.41123ZM28.501 45.1081L22.7422 43.702L15.1193 48.7L24.2202 49.2065L28.501 45.1081ZM13.5215 49.1265L10.8585 48.8399L7.80266 50.6592L11.3578 50.7058L13.5215 49.1265ZM28.501 36.2651L24.2202 32.1668L15.1193 32.6799L22.7422 37.6712L28.4944 36.2651H28.501ZM13.5215 32.2468L11.3578 30.6674L7.80266 30.7141L10.8585 32.5333L13.5215 32.2468Z" fill="url(#paint0_linear_3961_143)"/>
<path d="M44.9851 0L47.8279 18.4058L44.9851 23.6036L42.1357 18.4058L44.9851 0ZM30.212 32.1468L27.1362 27.0822L9.78662 20.345L24.2868 32.0202L30.212 32.1535V32.1468ZM30.2054 49.2264L24.2801 49.3597L9.7733 61.0283L27.1229 54.291L30.1987 49.2264H30.2054ZM36.4501 25.896L36.317 19.9651L28.0816 11.3887L31.3837 22.8173L36.4435 25.896H36.4501ZM27.2561 9.95591L26.7434 6.6506L22.4959 1.69264L24.6596 7.85011L27.2561 9.94925V9.95591ZM40.5712 24.1901L41.9759 18.4324L36.9894 10.7956L36.4768 19.9052L40.5712 24.1901ZM36.8363 6.53065L35.0188 3.47191L34.9722 7.03045L36.55 9.19622L36.8363 6.53731V6.53065ZM23.1217 18.8056L27.2294 26.9489L32.915 28.6149L31.2573 22.9239L23.1217 18.8123V18.8056ZM21.95 17.6328L20.8648 15.1871L17.7624 13.4478L19.5 16.5532L21.95 17.6328ZM53.5135 25.896L58.5732 22.8173L61.882 11.3887L53.6466 19.9651L53.5135 25.896ZM67.4744 1.69264L63.2269 6.6506L62.7142 9.95591L65.3173 7.85677L67.481 1.6993L67.4744 1.69264ZM36.4501 55.4772L31.3904 58.5559L28.0883 69.9846L36.3237 61.4014L36.4568 55.4705L36.4501 55.4772ZM22.4959 79.6806L26.7434 74.7226L27.2561 71.4173L24.6596 73.5165L22.4959 79.6739V79.6806ZM53.4935 19.9052L52.9809 10.7956L47.9944 18.4324L49.3991 24.1901L53.4935 19.9052ZM54.9915 7.03045L54.9449 3.47191L53.1273 6.53065L53.4136 9.18956L54.9915 7.02378V7.03045ZM36.4701 61.4681L36.9828 70.571L41.9693 62.9408L40.5645 57.1832L36.4701 61.4681ZM34.9722 74.3428L35.0188 77.9013L36.8363 74.8426L36.55 72.1837L34.9722 74.3495V74.3428ZM58.713 22.9173L57.0486 28.6082L62.7342 26.9423L66.8419 18.7989L58.7064 22.9106L58.713 22.9173ZM72.2013 13.4411L69.0988 15.1804L68.0136 17.6261L70.4636 16.5465L72.2013 13.4411ZM23.1217 62.5676L31.2573 58.456L32.915 52.765L27.2294 54.431L23.1217 62.5743V62.5676ZM17.769 67.9321L20.8715 66.1928L21.95 63.7472L19.5067 64.8267L17.769 67.9321ZM22.7289 43.5354L27.9285 40.69L22.7289 37.8445L11.1914 40.69L22.7289 43.5354ZM6.41123 39.4838L0 40.69L6.41789 41.8961L9.53363 40.69L6.41789 39.4838H6.41123ZM28.501 45.1081L22.7422 43.702L15.1193 48.7L24.2202 49.2065L28.501 45.1081ZM13.5215 49.1265L10.8585 48.8399L7.80266 50.6592L11.3578 50.7058L13.5215 49.1265ZM28.501 36.2651L24.2202 32.1668L15.1193 32.6799L22.7422 37.6712L28.4944 36.2651H28.501ZM13.5215 32.2468L11.3578 30.6674L7.80266 30.7141L10.8585 32.5333L13.5215 32.2468Z" fill="url(#paint1_linear_3961_143)"/>
<path d="M37.7812 50.9411V33.375H41.5361V47.7491H47.5279V50.9411H37.7812Z" fill="white"/>
<path d="M64.5515 33.375V44.3038C64.5515 46.6895 63.9257 48.4688 62.6674 49.6417C61.4158 50.8212 59.525 51.4076 56.9952 51.4076C54.4653 51.4076 52.5213 50.8212 51.263 49.6417C50.0114 48.4688 49.3789 46.6829 49.3789 44.3038V33.375H53.1071V43.7174C53.1071 45.1635 53.4267 46.2564 54.0658 46.9894C54.705 47.7224 55.657 48.089 56.9286 48.089C58.2002 48.089 59.1722 47.7224 59.8313 46.9827C60.4837 46.243 60.8166 45.1568 60.8166 43.7174V33.375H64.5448H64.5515Z" fill="white"/>
<path d="M66.9051 50.9411L69.5814 33.375H73.5161L76.8981 43.7174C76.9713 43.9373 77.0512 44.2505 77.1311 44.6637C77.2177 45.0769 77.2909 45.5567 77.3641 46.0898C77.4307 45.5433 77.4973 45.0569 77.5772 44.6304C77.6571 44.2039 77.7303 43.8907 77.8035 43.6908L81.2455 33.375H85.1135L87.7965 50.9411H84.2347L82.9498 40.3455C82.8566 39.5591 82.79 38.9727 82.7567 38.5729C82.7235 38.173 82.7101 37.7998 82.7101 37.46C82.7101 37.2734 82.7101 37.1401 82.7101 37.0468C82.7101 36.9535 82.7235 36.8736 82.7301 36.8003C82.6103 37.4866 82.4971 38.0797 82.3906 38.5795C82.2841 39.0793 82.1842 39.4592 82.0977 39.7124L78.3827 50.9411H76.2723L72.6173 39.7124C72.584 39.6058 72.5174 39.3192 72.4042 38.8461C72.2977 38.3729 72.1446 37.6866 71.9582 36.7803V37.2934C71.9582 38.1131 71.885 39.1126 71.7451 40.2922L71.7318 40.3388L70.4602 50.9345H66.8984L66.9051 50.9411Z" fill="white"/>
<path d="M90.3086 50.9411V33.375H94.0635V50.9411H90.3086Z" fill="white"/>
<path d="M98.0625 50.9411V33.375H108.395V36.5404H101.817V40.1522H108.395V43.3442H101.817V47.7491H108.395V50.9411H98.0625Z" fill="white"/>
<path d="M124.77 50.9411H120.443L115.829 42.7378V50.9411H112.074V33.375H117.447C119.577 33.375 121.182 33.7882 122.24 34.6145C123.306 35.4408 123.838 36.687 123.838 38.353C123.838 39.5591 123.472 40.592 122.746 41.445C122.021 42.298 121.082 42.7978 119.93 42.9444L124.77 50.9345V50.9411ZM115.829 40.8586H116.388C117.906 40.8586 118.912 40.692 119.398 40.3588C119.884 40.0256 120.13 39.4458 120.13 38.6262C120.13 37.7599 119.87 37.1468 119.344 36.7869C118.818 36.4204 117.833 36.2405 116.388 36.2405H115.829V40.8586Z" fill="white"/>
<path d="M126.953 50.9411V33.375H137.286V36.5404H130.708V40.1522H137.286V43.3442H130.708V47.7491H137.286V50.9411H126.953Z" fill="white"/>
<path d="M140.67 33.3735H142.92L147.367 46.2949L152.007 32.6738L156.694 46.2949L161.162 33.3735H163.412L156.614 51.6194L152.021 38.0383L147.454 51.6194L140.656 33.3735H140.67Z" fill="white"/>
<path d="M183.314 42.19C183.314 43.4428 183.081 44.629 182.622 45.7419C182.156 46.8548 181.483 47.841 180.598 48.7073C179.712 49.5737 178.687 50.2334 177.535 50.7065C176.377 51.173 175.179 51.4062 173.94 51.4062C172.702 51.4062 171.51 51.173 170.358 50.7065C169.213 50.24 168.195 49.5737 167.309 48.7073C166.411 47.8344 165.731 46.8414 165.265 45.7286C164.799 44.6157 164.566 43.4362 164.566 42.19C164.566 40.9439 164.799 39.751 165.265 38.6315C165.731 37.5186 166.417 36.519 167.309 35.6527C168.188 34.7997 169.207 34.14 170.358 33.6735C171.51 33.2137 172.709 32.9805 173.94 32.9805C175.172 32.9805 176.39 33.2137 177.549 33.6735C178.707 34.14 179.719 34.7997 180.598 35.6527C181.483 36.519 182.162 37.5053 182.622 38.6248C183.081 39.7444 183.314 40.9305 183.314 42.1967V42.19ZM173.934 49.4404C174.892 49.4404 175.804 49.2605 176.677 48.8939C177.542 48.5274 178.328 48.001 179.027 47.3013C179.712 46.6149 180.238 45.8352 180.598 44.9622C180.957 44.0892 181.137 43.1696 181.137 42.19C181.137 41.2104 180.957 40.2708 180.591 39.3845C180.225 38.4982 179.706 37.7119 179.027 37.0321C178.334 36.3458 177.562 35.8193 176.69 35.4594C175.824 35.0996 174.906 34.9197 173.934 34.9197C172.962 34.9197 172.036 35.0996 171.164 35.4594C170.292 35.8193 169.52 36.3458 168.847 37.0321C168.161 37.7319 167.636 38.5182 167.276 39.3978C166.917 40.2775 166.737 41.2104 166.737 42.1967C166.737 43.1829 166.917 44.0892 167.269 44.9556C167.629 45.8219 168.155 46.6015 168.847 47.3079C169.553 48.0143 170.332 48.5407 171.197 48.9073C172.056 49.2671 172.968 49.447 173.934 49.447V49.4404Z" fill="white"/>
<path d="M187.663 50.9392H185.879V33.373H191.285C193.069 33.373 194.48 33.7596 195.512 34.5392C196.544 35.3189 197.064 36.4918 197.064 38.0645C197.064 39.2906 196.677 40.3169 195.912 41.1499C195.146 41.9828 194.034 42.4693 192.576 42.6026L197.63 50.9392H195.446L190.639 42.7759H187.663V50.9392ZM187.663 41.1365H190.839C191.631 41.1365 192.303 41.0566 192.856 40.89C193.409 40.7234 193.848 40.5034 194.181 40.2302C194.514 39.957 194.753 39.6371 194.9 39.264C195.046 38.8908 195.12 38.4909 195.12 38.0578C195.12 37.6246 195.046 37.2515 194.9 36.8783C194.753 36.5051 194.514 36.1786 194.181 35.8987C193.848 35.6188 193.409 35.3989 192.856 35.2389C192.303 35.079 191.631 35.0057 190.839 35.0057H187.663V41.1299V41.1365Z" fill="white"/>
<path d="M201.439 40.9899H201.686L209.941 33.373H212.491L203.643 41.3364L212.984 50.9392H210.354L201.732 41.8829H201.433V50.9392H199.648V33.373H201.433V40.9899H201.439Z" fill="white"/>
</g>
<defs>
<linearGradient id="paint0_linear_3961_143" x1="-576.079" y1="1464.53" x2="944.863" y2="-2099.99" gradientUnits="userSpaceOnUse">
<stop stop-color="#00BFF2"/>
<stop offset="0.19" stop-color="#00A3E0"/>
<stop offset="0.3" stop-color="#007BBF"/>
<stop offset="0.4" stop-color="#1A459C"/>
<stop offset="0.53" stop-color="#90278D"/>
<stop offset="0.62" stop-color="#C21889"/>
<stop offset="0.75" stop-color="#F05C22"/>
<stop offset="0.93" stop-color="#FCC50E"/>
<stop offset="1" stop-color="#FFF5A1"/>
</linearGradient>
<linearGradient id="paint1_linear_3961_143" x1="30.513" y1="87.0972" x2="74.6091" y2="3.36117" gradientUnits="userSpaceOnUse">
<stop offset="0.0552911" stop-color="#10BBED"/>
<stop offset="0.184342" stop-color="#8131BF"/>
<stop offset="0.390667" stop-color="#F0001B"/>
<stop offset="0.545357" stop-color="#F05D24"/>
<stop offset="0.686743" stop-color="#FF9B00"/>
<stop offset="0.838906" stop-color="#FFD12E"/>
<stop offset="1" stop-color="#FFF5A1"/>
</linearGradient>
<clipPath id="clip0_3961_143">
<rect width="212.989" height="79.6806" fill="white"/>
</clipPath>
</defs>
</svg>
