<svg width="151" height="99" viewBox="0 0 151 99" fill="none" xmlns="http://www.w3.org/2000/svg">
<g id="Design" clip-path="url(#clip0_3961_161)">
<path id="Vector" d="M75.798 0.238281L78.4767 17.5412L75.798 22.4281L73.1193 17.5412L75.798 0.238281ZM73.1193 59.4231L75.798 76.7261L78.4767 59.4231L75.798 54.5363L73.1193 59.4231ZM61.8931 30.4551L58.9973 25.695L42.6762 19.3602L56.3231 30.333L61.8977 30.4551H61.8931ZM89.6982 46.5092L92.5942 51.2739L108.92 57.6087L95.2729 46.6359L89.7028 46.5092H89.6982ZM61.8931 46.5092L56.3231 46.6359L42.6762 57.6041L59.0018 51.2739L61.8977 46.5092H61.8931ZM89.6982 30.4551L95.2683 30.3284L108.915 19.3602L92.5896 25.6905L89.6937 30.4551H89.6982ZM67.7709 24.5774L67.6442 19.0073L59.8977 10.944L63.0063 21.686L67.7709 24.5819V24.5774ZM59.1149 9.59111L58.6307 6.48708L54.6353 1.83102L56.6715 7.62281L59.1194 9.59564L59.1149 9.59111ZM83.8205 52.3825L83.9472 57.9525L91.6937 66.0203L88.5851 55.2784L83.825 52.3825H83.8205ZM92.472 67.3687L92.9561 70.4728L96.9561 75.1333L94.9199 69.3416L92.472 67.3687ZM71.6396 22.9756L72.9609 17.5639L68.2686 10.3875L67.789 18.9485L71.6396 22.9756ZM68.1329 6.37848L66.4225 3.50069L66.3773 6.84454L67.8614 8.87619L68.1284 6.37396L68.1329 6.37848ZM79.9518 53.9888L78.6305 59.405L83.3228 66.5769L83.8024 58.0159L79.9518 53.9843V53.9888ZM83.4585 70.5859L85.1689 73.4637L85.2141 70.1198L83.73 68.0882L83.463 70.5904L83.4585 70.5859ZM55.2281 17.9168L59.0923 25.5683L64.4406 27.1339L62.8796 21.7855L55.2281 17.9213V17.9168ZM54.124 16.8127L53.1059 14.5141L50.1874 12.8761L51.8209 15.7947L54.124 16.8127ZM96.3633 59.0476L92.4991 51.3961L87.1462 49.835L88.7073 55.1833L96.3588 59.0476H96.3633ZM97.4629 60.1516L98.481 62.4502L101.399 64.0882L99.766 61.1697L97.4629 60.1516ZM83.8205 24.5774L88.5806 21.6815L91.6892 10.9395L83.9427 19.0028L83.816 24.5728L83.8205 24.5774ZM96.9561 1.83102L92.9561 6.48708L92.472 9.59111L94.9199 7.61829L96.9561 1.8265V1.83102ZM67.7709 52.3825L63.0063 55.2784L59.8977 66.0203L67.6442 57.9525L67.7709 52.3825ZM54.6353 75.1333L58.6307 70.4728L59.1149 67.3687L56.667 69.3416L54.6308 75.1333H54.6353ZM83.8024 18.9485L83.3228 10.3875L78.6305 17.5639L79.9518 22.9756L83.8069 18.9485H83.8024ZM85.2141 6.84906L85.1689 3.50521L83.4585 6.38301L83.7255 8.88524L85.2096 6.85359L85.2141 6.84906ZM67.789 58.0159L68.2686 66.5769L72.9654 59.405L71.6442 53.9888L67.7935 58.0204L67.789 58.0159ZM66.3773 70.1153L66.418 73.4592L68.1284 70.5814L67.8569 68.0791L66.3727 70.1108L66.3773 70.1153ZM88.7118 21.781L87.1462 27.1294L92.4991 25.5638L96.3633 17.9123L88.7118 21.7765V21.781ZM101.399 12.8761L98.481 14.5141L97.4629 16.8127L99.766 15.7947L101.399 12.8761ZM55.2281 59.0476L62.8796 55.1833L64.4406 49.835L59.0923 51.3961L55.2281 59.0476ZM50.1874 64.0882L53.1059 62.4502L54.124 60.1516L51.8209 61.1697L50.1874 64.0882ZM54.857 41.1609L59.7438 38.4822L54.857 35.8035L43.9974 38.4822L54.857 41.1609ZM39.5043 37.351L33.4727 38.4822L39.5088 39.6179L42.4409 38.4822L39.5088 37.351H39.5043ZM96.7389 35.8035L91.8521 38.4822L96.7389 41.1609L107.594 38.4822L96.7389 35.8035ZM112.083 37.3465L109.151 38.4777L112.083 39.6089L118.114 38.4777L112.083 37.3465ZM60.2914 42.636L54.8751 41.3147L47.6987 46.0115L56.2597 46.4866L60.2868 42.636H60.2914ZM46.192 46.4142L43.6897 46.1427L40.8119 47.8531L44.1558 47.8938L46.1874 46.4097L46.192 46.4142ZM103.888 30.9529L95.3271 30.4732L91.3 34.3239L96.7163 35.6451L103.893 30.9529H103.888ZM110.775 29.1067L107.427 29.066L105.395 30.5501L107.897 30.8171L110.775 29.1067ZM60.2914 34.3284L56.2642 30.4778L47.7033 30.9574L54.8797 35.6496L60.2959 34.3284H60.2914ZM46.192 30.5501L44.1603 29.066L40.8165 29.1067L43.6943 30.8171L46.1965 30.5501H46.192ZM91.3 42.636L95.3271 46.4911L103.888 46.016L96.7117 41.3193L91.2955 42.6405L91.3 42.636ZM105.395 46.4142L107.427 47.8984L110.775 47.8531L107.897 46.1427L105.395 46.4097V46.4142Z" fill="url(#paint0_linear_3961_161)"/>
<g id="Group">
<path id="Vector_2" d="M0.589844 97.5043V82.4004H3.82058V94.7577H8.97889V97.5043H0.589844Z" fill="black"/>
<path id="Vector_3" d="M23.6323 82.4004V91.7985C23.6323 93.8482 23.0938 95.3776 22.0124 96.3867C20.9309 97.3957 19.3065 97.9025 17.1301 97.9025C14.9536 97.9025 13.2795 97.3957 12.198 96.3867C11.1166 95.3776 10.5781 93.8437 10.5781 91.7985V82.4004H13.7862V91.2917C13.7862 92.536 14.0622 93.4772 14.6098 94.1061C15.1573 94.7351 15.9808 95.0518 17.0758 95.0518C18.1708 95.0518 19.0079 94.7351 19.5735 94.1016C20.1391 93.4681 20.4196 92.5315 20.4196 91.2962V82.4049H23.6277L23.6323 82.4004Z" fill="black"/>
<path id="Vector_4" d="M25.6641 97.503L27.9627 82.3991H31.3473L34.2567 91.2904C34.3201 91.4759 34.3834 91.7474 34.4603 92.1048C34.5327 92.4623 34.6006 92.874 34.6594 93.3311C34.7137 92.865 34.7771 92.4442 34.845 92.0777C34.9128 91.7066 34.9807 91.4397 35.0395 91.2677L37.9988 82.3945H41.329L43.6412 97.4984H40.5779L39.4739 88.3899C39.3924 87.7157 39.3381 87.2044 39.311 86.8651C39.2838 86.5212 39.2702 86.1999 39.2702 85.9058C39.2702 85.7474 39.2702 85.6298 39.2748 85.5483C39.2748 85.4714 39.2838 85.399 39.2883 85.3357C39.1843 85.9284 39.0892 86.4397 38.9942 86.8696C38.8992 87.2995 38.8178 87.6252 38.7408 87.8424L35.5418 97.4984H33.7273L30.5826 87.8424C30.5554 87.7519 30.4966 87.5076 30.4016 87.1004C30.3065 86.6931 30.1798 86.1049 30.017 85.3266V85.7701C30.017 86.4714 29.9536 87.3311 29.8314 88.3492L29.8224 88.3899L28.7274 97.4984H25.6641V97.503Z" fill="black"/>
<path id="Vector_5" d="M45.7969 97.5043V82.4004H49.0276V97.5043H45.7969Z" fill="black"/>
<path id="Vector_6" d="M52.4766 97.5043V82.4004H61.3724V85.1243H55.7073V88.2284H61.3724V90.975H55.7073V94.7622H61.3724V97.5088H52.4766V97.5043Z" fill="black"/>
<path id="Vector_7" d="M75.4626 97.5043H71.7387L67.7659 90.4455V97.5043H64.5352V82.4004H69.1595C70.9966 82.4004 72.3722 82.7533 73.2862 83.4683C74.2002 84.1787 74.6572 85.251 74.6572 86.6809C74.6572 87.7171 74.345 88.6039 73.716 89.3415C73.0916 90.079 72.2817 90.5089 71.2907 90.6311L75.4581 97.5043H75.4626ZM67.7659 88.8392H68.25C69.5577 88.8392 70.422 88.6944 70.8382 88.4094C71.2591 88.1243 71.4672 87.6266 71.4672 86.9207C71.4672 86.2148 71.241 85.6492 70.793 85.337C70.3405 85.0248 69.4944 84.8664 68.25 84.8664H67.7659V88.8392Z" fill="black"/>
<path id="Vector_8" d="M77.3398 97.5043V82.4004H86.2357V85.1243H80.5706V88.2284H86.2357V90.975H80.5706V94.7622H86.2357V97.5088H77.3398V97.5043Z" fill="black"/>
<path id="Vector_9" d="M89.1484 82.4H91.0896L94.9176 93.513L98.9085 81.8027L102.945 93.513L106.791 82.4H108.732L102.881 98.0921L98.9311 86.4135L94.999 98.0921L89.1484 82.4Z" fill="black"/>
<path id="Vector_10" d="M125.856 89.9835C125.856 91.065 125.656 92.0831 125.258 93.0378C124.86 93.9925 124.276 94.8432 123.512 95.5853C122.747 96.3274 121.869 96.902 120.874 97.3047C119.878 97.7074 118.847 97.9065 117.783 97.9065C116.72 97.9065 115.688 97.7029 114.702 97.3047C113.715 96.902 112.838 96.3319 112.073 95.5853C111.304 94.8342 110.715 93.9835 110.313 93.0287C109.91 92.074 109.711 91.0559 109.711 89.9835C109.711 88.9111 109.91 87.884 110.313 86.9247C110.715 85.9655 111.304 85.1103 112.073 84.3637C112.829 83.6261 113.706 83.0605 114.697 82.6578C115.688 82.2596 116.715 82.0605 117.783 82.0605C118.851 82.0605 119.892 82.2596 120.887 82.6578C121.883 83.056 122.756 83.6261 123.516 84.3637C124.281 85.1058 124.86 85.9564 125.263 86.9157C125.661 87.875 125.86 88.8976 125.86 89.9881L125.856 89.9835ZM117.783 96.2142C118.611 96.2142 119.394 96.0559 120.141 95.7436C120.887 95.4314 121.561 94.9744 122.159 94.3771C122.752 93.7844 123.199 93.1147 123.512 92.3681C123.824 91.617 123.978 90.8251 123.978 89.9835C123.978 89.1419 123.819 88.332 123.507 87.5673C123.195 86.8026 122.742 86.1284 122.159 85.5447C121.566 84.9519 120.896 84.504 120.15 84.1917C119.403 83.8841 118.616 83.7302 117.779 83.7302C116.942 83.7302 116.145 83.8841 115.394 84.1917C114.643 84.4994 113.978 84.9519 113.403 85.5447C112.81 86.1465 112.362 86.8207 112.05 87.5763C111.738 88.3365 111.584 89.1329 111.584 89.9835C111.584 90.8342 111.738 91.6125 112.041 92.3545C112.349 93.0966 112.801 93.7708 113.399 94.3771C114.005 94.9835 114.679 95.4405 115.417 95.7482C116.154 96.0559 116.942 96.2097 117.774 96.2097L117.783 96.2142Z" fill="black"/>
<path id="Vector_11" d="M128.786 97.5043V82.4004H132.334C133.343 82.4004 134.085 82.4547 134.556 82.5678C135.026 82.6809 135.442 82.8755 135.8 83.1515C136.248 83.5045 136.592 83.9705 136.841 84.5587C137.089 85.147 137.212 85.7985 137.212 86.5135C137.212 87.7533 136.868 88.6899 136.175 89.3324C135.483 89.975 134.47 90.2962 133.135 90.2962H132.814L138.583 97.4952H136.302L130.791 90.2962H130.533V97.4952H128.777L128.786 97.5043ZM130.542 83.9162V88.9705H131.913C133.316 88.9705 134.252 88.7895 134.728 88.4275C135.203 88.0655 135.438 87.4365 135.438 86.5316C135.438 85.5633 135.194 84.8845 134.705 84.4954C134.216 84.1063 133.284 83.9117 131.909 83.9117H130.538L130.542 83.9162Z" fill="black"/>
<path id="Vector_12" d="M140.094 97.5043V82.4004H141.868V89.1152L148.212 82.4004H150.357L143.877 89.1967L150.995 97.5043H148.673L141.864 89.3732V97.5043H140.09H140.094Z" fill="black"/>
</g>
</g>
<defs>
<linearGradient id="paint0_linear_3961_161" x1="101.558" y1="75.0926" x2="52.7032" y2="5.66355" gradientUnits="userSpaceOnUse">
<stop offset="0.02" stop-color="#10BBED"/>
<stop offset="0.22" stop-color="#8131BF"/>
<stop offset="0.43" stop-color="#F0001B"/>
<stop offset="0.57" stop-color="#F05D24"/>
<stop offset="0.71" stop-color="#FF9B00"/>
<stop offset="0.89" stop-color="#FFD600"/>
<stop offset="1" stop-color="#FAFF00"/>
</linearGradient>
<clipPath id="clip0_3961_161">
<rect width="150.41" height="97.8541" fill="white" transform="translate(0.589844 0.238281)"/>
</clipPath>
</defs>
</svg>
