<svg width="401" height="432" viewBox="0 0 401 432" fill="none" xmlns="http://www.w3.org/2000/svg">
<g clip-path="url(#clip0_3284_4239)">
<mask id="mask0_3284_4239" style="mask-type:luminance" maskUnits="userSpaceOnUse" x="40" y="106" width="31" height="5">
<path d="M70.0383 110.508L40.1124 106.537C40.1895 106.547 40.2665 106.558 40.3436 106.569L70.2695 110.539C70.1925 110.529 70.1154 110.515 70.0383 110.508Z" fill="white"/>
</mask>
<g mask="url(#mask0_3284_4239)">
<path d="M40.3397 106.572L70.2656 110.543C70.1886 110.532 70.1115 110.518 70.0344 110.511L40.1085 106.54C40.1856 106.551 40.2626 106.562 40.3397 106.572Z" fill="#858688"/>
</g>
<mask id="mask1_3284_4239" style="mask-type:luminance" maskUnits="userSpaceOnUse" x="40" y="106" width="36" height="8">
<path d="M45.577 109.213L75.5029 113.184C73.9861 111.714 72.1681 110.842 70.266 110.543L40.34 106.572C42.2422 106.871 44.0602 107.743 45.577 109.213Z" fill="white"/>
</mask>
<g mask="url(#mask1_3284_4239)">
<path d="M45.577 109.213L75.5029 113.184C73.9861 111.714 72.1681 110.842 70.266 110.543L40.34 106.572C42.2422 106.871 44.0602 107.743 45.577 109.213Z" fill="#858688"/>
</g>
<path d="M23.1052 285.653L53.0347 289.624L73.5762 154.046L43.6502 150.075L23.1052 285.653Z" fill="#7D7E80"/>
<mask id="mask2_3284_4239" style="mask-type:luminance" maskUnits="userSpaceOnUse" x="22" y="285" width="35" height="17">
<path d="M27.0223 297.351L56.9482 301.322C54.0233 298.751 52.3278 294.259 53.0319 289.624L23.1059 285.653C22.4019 290.292 24.0973 294.78 27.0223 297.351Z" fill="white"/>
</mask>
<g mask="url(#mask2_3284_4239)">
<path d="M27.0223 297.351L56.9482 301.322C56.5349 300.959 56.1461 300.555 55.7853 300.119L25.8593 296.148C26.2201 296.584 26.6089 296.985 27.0223 297.351Z" fill="#858688"/>
<path d="M25.8592 296.152L55.7852 300.122C53.5923 297.477 52.4293 293.605 53.0318 289.624L23.1059 285.653C22.5033 289.634 23.6663 293.507 25.8592 296.152Z" fill="#808183"/>
</g>
<mask id="mask3_3284_4239" style="mask-type:luminance" maskUnits="userSpaceOnUse" x="43" y="144" width="37" height="11">
<path d="M79.9238 148.718L49.9979 144.747C46.8242 144.325 44.1899 146.526 43.6505 150.079L73.5764 154.05C74.1159 150.501 76.7501 148.299 79.9238 148.718Z" fill="white"/>
</mask>
<g mask="url(#mask3_3284_4239)">
<path d="M43.6505 150.075L73.5764 154.046C74.1159 150.497 76.7501 148.296 79.9238 148.714L49.9979 144.743C46.8242 144.321 44.1899 146.523 43.6505 150.075Z" fill="#808183"/>
</g>
<mask id="mask4_3284_4239" style="mask-type:luminance" maskUnits="userSpaceOnUse" x="59" y="260" width="38" height="5">
<path d="M59.9573 260.864L89.8832 264.835C92.0796 265.127 94.325 264.951 96.2236 264.255L66.2977 260.284C64.4026 260.984 62.1572 261.156 59.9573 260.864Z" fill="white"/>
</mask>
<g mask="url(#mask4_3284_4239)">
<path d="M59.9573 260.864L89.8832 264.835C92.0796 265.127 94.325 264.951 96.2236 264.255L66.2977 260.284C64.4026 260.984 62.1572 261.156 59.9573 260.864Z" fill="#50B503" fill-opacity="0.7"/>
</g>
<mask id="mask5_3284_4239" style="mask-type:luminance" maskUnits="userSpaceOnUse" x="91" y="81" width="33" height="13">
<path d="M94.0057 89.9502L123.932 93.921C121.385 91.9339 121.091 87.6641 122.867 85.3076L92.9408 81.3368C91.1648 83.6933 91.4625 87.963 94.0057 89.9502Z" fill="white"/>
</mask>
<g mask="url(#mask5_3284_4239)">
<path d="M94.0057 89.9502L123.932 93.921C123.641 93.696 123.378 93.4392 123.147 93.1578L93.221 89.187C93.4522 89.4684 93.7149 89.7251 94.0057 89.9502Z" fill="#858688"/>
<path d="M93.2244 89.187L123.15 93.1578C121.35 90.9842 121.294 87.3968 122.87 85.3076L92.9442 81.3368C91.3714 83.426 91.4239 87.0134 93.2244 89.187Z" fill="#808183"/>
</g>
<path d="M74.9988 231.039L104.928 235.01L108.911 208.72L78.9817 204.749L74.9988 231.039Z" fill="#466420"/>
<mask id="mask6_3284_4239" style="mask-type:luminance" maskUnits="userSpaceOnUse" x="92" y="79" width="34" height="7">
<path d="M92.9415 81.3367L122.867 85.3076C123.491 84.3474 124.493 83.9816 125.575 83.0918L95.6492 79.121C94.5668 80.0073 93.565 80.3766 92.9415 81.3367Z" fill="white"/>
</mask>
<g mask="url(#mask6_3284_4239)">
<path d="M92.9415 81.3367L122.867 85.3076C123.491 84.3474 124.493 83.9816 125.575 83.0918L95.6492 79.121C94.5668 80.0073 93.565 80.3766 92.9415 81.3367Z" fill="#808183"/>
</g>
<mask id="mask7_3284_4239" style="mask-type:luminance" maskUnits="userSpaceOnUse" x="69" y="191" width="41" height="18">
<path d="M99.7997 195.151L69.8738 191.18C69.9578 191.19 70.0419 191.204 70.1295 191.215C76.1511 192.161 80.0009 198.049 78.985 204.749L108.911 208.72C109.927 202.02 106.077 196.135 100.055 195.186C99.9714 195.172 99.8873 195.161 99.7997 195.151Z" fill="white"/>
</mask>
<g mask="url(#mask7_3284_4239)">
<path d="M78.981 204.749L108.907 208.72C109.488 204.889 108.476 201.323 106.381 198.798L76.4554 194.827C78.5537 197.356 79.5625 200.919 78.981 204.749Z" fill="#476621"/>
<path d="M76.4559 194.827L106.382 198.798C104.813 196.906 102.63 195.594 100.052 195.186C99.9679 195.172 99.8838 195.161 99.7962 195.151L69.8703 191.18C69.9543 191.19 70.0384 191.204 70.126 191.215C72.7042 191.619 74.8866 192.931 76.4559 194.827Z" fill="#4A6A22"/>
</g>
<path d="M114.555 170.207L144.484 174.178L75.5072 113.184L45.5778 109.213L114.555 170.207Z" fill="#87888A"/>
<mask id="mask8_3284_4239" style="mask-type:luminance" maskUnits="userSpaceOnUse" x="106" y="186" width="40" height="10">
<path d="M106.221 191.081L136.147 195.052C139.573 195.506 143.121 194.078 145.77 190.744L115.844 186.773C113.195 190.107 109.647 191.535 106.221 191.081Z" fill="white"/>
</mask>
<g mask="url(#mask8_3284_4239)">
<path d="M106.221 191.081L136.147 195.052C139.573 195.506 143.121 194.078 145.77 190.744L115.844 186.773C113.195 190.107 109.647 191.535 106.221 191.081Z" fill="#808183"/>
</g>
<mask id="mask9_3284_4239" style="mask-type:luminance" maskUnits="userSpaceOnUse" x="114" y="170" width="35" height="21">
<path d="M115.844 186.773L145.77 190.744C149.399 185.51 149.108 178.075 144.481 174.178L114.555 170.207C119.182 174.104 119.473 181.539 115.844 186.773Z" fill="white"/>
</mask>
<g mask="url(#mask9_3284_4239)">
<path d="M115.844 186.773L145.77 190.744C149.038 186.031 149.129 179.531 145.735 175.441L115.809 171.47C119.203 175.56 119.116 182.06 115.844 186.773Z" fill="#808183"/>
<path d="M115.809 171.47L145.735 175.441C145.361 174.991 144.944 174.565 144.485 174.178L114.559 170.207C115.018 170.594 115.435 171.016 115.809 171.47Z" fill="#858688"/>
</g>
<mask id="mask10_3284_4239" style="mask-type:luminance" maskUnits="userSpaceOnUse" x="103" y="295" width="33" height="14">
<path d="M105.128 304.396L135.054 308.366C132.511 306.383 132.209 302.113 134.448 299.827L104.522 295.856C102.283 298.146 102.585 302.415 105.128 304.396Z" fill="white"/>
</mask>
<g mask="url(#mask10_3284_4239)">
<path d="M105.128 304.396L135.054 308.366C134.766 308.141 134.504 307.888 134.276 307.607L104.35 303.636C104.581 303.914 104.841 304.167 105.128 304.396Z" fill="#398211"/>
<path d="M104.35 303.639L134.276 307.61C132.475 305.44 132.468 301.856 134.451 299.827L104.525 295.856C102.543 297.885 102.553 301.469 104.35 303.639Z" fill="#398211"/>
</g>
<mask id="mask11_3284_4239" style="mask-type:luminance" maskUnits="userSpaceOnUse" x="104" y="294" width="33" height="6">
<path d="M104.522 295.856L134.448 299.827C135.068 298.87 136.077 298.501 136.616 298.061L106.69 294.09C106.151 294.53 105.142 294.899 104.522 295.856Z" fill="white"/>
</mask>
<g mask="url(#mask11_3284_4239)">
<path d="M104.522 295.856L134.448 299.827C135.068 298.87 136.077 298.501 136.616 298.061L106.69 294.09C106.151 294.53 105.142 294.899 104.522 295.856Z" fill="#398211"/>
</g>
<path d="M115.998 314.025L145.924 317.996L135.058 308.366L105.128 304.396L115.998 314.025Z" fill="#398211"/>
<path d="M142.101 132.349L172.027 136.32L123.935 93.921L94.0055 89.9502L142.101 132.349Z" fill="#87888A"/>
<mask id="mask12_3284_4239" style="mask-type:luminance" maskUnits="userSpaceOnUse" x="107" y="330" width="41" height="9">
<path d="M107.482 334.752L137.408 338.723C141.044 339.205 144.838 337.696 147.206 334.555L117.28 330.584C114.912 333.721 111.118 335.234 107.482 334.752Z" fill="white"/>
</mask>
<g mask="url(#mask12_3284_4239)">
<path d="M107.482 334.752L137.408 338.723C141.044 339.205 144.838 337.696 147.206 334.555L117.28 330.584C114.912 333.721 111.118 335.234 107.482 334.752Z" fill="#398211"/>
</g>
<mask id="mask13_3284_4239" style="mask-type:luminance" maskUnits="userSpaceOnUse" x="133" y="148" width="41" height="10">
<path d="M133.765 153.223L163.691 157.194C167.117 157.648 170.665 156.22 173.313 152.885L143.388 148.915C140.739 152.249 137.191 153.677 133.765 153.223Z" fill="white"/>
</mask>
<g mask="url(#mask13_3284_4239)">
<path d="M133.765 153.223L163.691 157.194C167.117 157.648 170.665 156.22 173.313 152.885L143.388 148.915C140.739 152.249 137.191 153.677 133.765 153.223Z" fill="#808183"/>
</g>
<mask id="mask14_3284_4239" style="mask-type:luminance" maskUnits="userSpaceOnUse" x="115" y="314" width="35" height="21">
<path d="M117.28 330.584L147.206 334.555C150.846 329.328 150.082 321.816 145.924 317.993L115.998 314.022C120.159 317.845 120.92 325.358 117.28 330.584Z" fill="white"/>
</mask>
<g mask="url(#mask14_3284_4239)">
<path d="M117.28 330.584L147.206 334.555C150.558 329.74 150.177 322.984 146.838 318.96L116.912 314.989C120.247 319.013 120.633 325.769 117.28 330.584Z" fill="#398211"/>
<path d="M116.912 314.989L146.838 318.96C146.554 318.619 146.249 318.295 145.92 317.993L115.994 314.022C116.32 314.321 116.628 314.645 116.912 314.989Z" fill="#398211"/>
</g>
<mask id="mask15_3284_4239" style="mask-type:luminance" maskUnits="userSpaceOnUse" x="146" y="104" width="36" height="6">
<path d="M146.435 105.837L176.361 109.808C178.148 110.043 180.043 109.755 181.882 108.841L151.956 104.87C150.117 105.784 148.222 106.073 146.435 105.837Z" fill="white"/>
</mask>
<g mask="url(#mask15_3284_4239)">
<path d="M146.435 105.837L176.361 109.808C178.148 110.043 180.043 109.755 181.882 108.841L151.956 104.87C150.117 105.784 148.222 106.073 146.435 105.837Z" fill="#476621"/>
</g>
<mask id="mask16_3284_4239" style="mask-type:luminance" maskUnits="userSpaceOnUse" x="142" y="132" width="34" height="21">
<path d="M143.391 148.915L173.317 152.885C176.946 147.652 176.655 140.217 172.028 136.32L142.102 132.349C146.729 136.246 147.02 143.681 143.391 148.915Z" fill="white"/>
</mask>
<g mask="url(#mask16_3284_4239)">
<path d="M143.391 148.915L173.317 152.885C176.585 148.173 176.676 141.673 173.282 137.583L143.356 133.612C146.75 137.702 146.663 144.202 143.391 148.915Z" fill="#808183"/>
<path d="M143.352 133.612L173.278 137.582C172.904 137.132 172.487 136.707 172.028 136.32L142.102 132.349C142.561 132.736 142.978 133.158 143.352 133.612Z" fill="#858688"/>
</g>
<path d="M121.901 381.427L151.83 385.398L56.9519 301.322L27.0225 297.351L121.901 381.427Z" fill="#87888A"/>
<mask id="mask17_3284_4239" style="mask-type:luminance" maskUnits="userSpaceOnUse" x="121" y="381" width="34" height="6">
<path d="M124.671 382.912L154.597 386.883C154.548 386.876 154.499 386.868 154.45 386.861C153.518 386.714 152.674 386.056 151.826 385.398L121.9 381.427C122.748 382.085 123.595 382.746 124.524 382.891C124.573 382.898 124.622 382.905 124.671 382.912Z" fill="white"/>
</mask>
<g mask="url(#mask17_3284_4239)">
<path d="M124.671 382.912L154.597 386.883C154.548 386.876 154.499 386.868 154.45 386.861C153.518 386.714 152.674 386.056 151.826 385.398L121.9 381.427C122.748 382.085 123.595 382.746 124.524 382.891C124.573 382.898 124.622 382.905 124.671 382.912Z" fill="#858688"/>
</g>
<path d="M151.956 104.87L181.881 108.841L195.095 103.002L165.169 99.0314L151.956 104.87Z" fill="#456220"/>
<mask id="mask18_3284_4239" style="mask-type:luminance" maskUnits="userSpaceOnUse" x="165" y="98" width="33" height="6">
<path d="M197.813 102.689L167.888 98.7184C167.015 98.6023 166.087 98.6938 165.169 99.0314L195.095 103.002C196.016 102.665 196.941 102.573 197.813 102.689Z" fill="white"/>
</mask>
<g mask="url(#mask18_3284_4239)">
<path d="M165.169 99.0314L195.095 103.002C196.016 102.665 196.941 102.573 197.813 102.689L167.888 98.7184C167.015 98.6023 166.087 98.6938 165.169 99.0314Z" fill="#476621"/>
</g>
<mask id="mask19_3284_4239" style="mask-type:luminance" maskUnits="userSpaceOnUse" x="188" y="65" width="31" height="5">
<path d="M218.459 69.2098L188.534 65.239C188.614 65.2496 188.695 65.2601 188.775 65.2742L218.701 69.245C218.621 69.2309 218.54 69.2204 218.459 69.2098Z" fill="white"/>
</mask>
<g mask="url(#mask19_3284_4239)">
<path d="M188.771 65.2742L218.697 69.245C218.617 69.2309 218.536 69.2204 218.456 69.2098L188.53 65.239C188.61 65.2496 188.691 65.2601 188.771 65.2742Z" fill="#4A6A22"/>
</g>
<path d="M66.2976 260.284L96.2236 264.255L201.919 217.551L171.989 213.58L66.2976 260.284Z" fill="#50B503" fill-opacity="0.7"/>
<mask id="mask20_3284_4239" style="mask-type:luminance" maskUnits="userSpaceOnUse" x="134" y="416" width="42" height="10">
<path d="M134.941 421.705L164.867 425.676C168.612 426.172 172.654 424.477 175.387 420.77L145.461 416.799C142.732 420.503 138.686 422.201 134.941 421.705Z" fill="white"/>
</mask>
<g mask="url(#mask20_3284_4239)">
<path d="M134.941 421.705L164.867 425.676C168.612 426.172 172.654 424.477 175.387 420.77L145.461 416.799C142.732 420.503 138.686 422.201 134.941 421.705Z" fill="#808183"/>
</g>
<mask id="mask21_3284_4239" style="mask-type:luminance" maskUnits="userSpaceOnUse" x="145" y="410" width="33" height="11">
<path d="M145.461 416.803L175.387 420.773C176.624 418.853 177.478 416.345 177.79 414.288L147.864 410.317C147.552 412.375 146.701 414.882 145.461 416.803Z" fill="white"/>
</mask>
<g mask="url(#mask21_3284_4239)">
<path d="M145.461 416.803L175.387 420.773C176.624 418.853 177.478 416.345 177.79 414.288L147.864 410.317C147.552 412.375 146.701 414.882 145.461 416.803Z" fill="#808183"/>
</g>
<path d="M147.861 410.317L177.791 414.288L192.633 316.34L162.703 312.369L147.861 410.317Z" fill="#7D7E80"/>
<mask id="mask22_3284_4239" style="mask-type:luminance" maskUnits="userSpaceOnUse" x="153" y="299" width="40" height="18">
<path d="M183.448 303.284L153.522 299.313C153.606 299.324 153.69 299.338 153.778 299.349C159.799 300.295 163.646 306.179 162.707 312.365L192.633 316.336C193.572 310.15 189.725 304.269 183.704 303.319C183.62 303.305 183.536 303.295 183.448 303.284Z" fill="white"/>
</mask>
<g mask="url(#mask22_3284_4239)">
<path d="M162.703 312.369L192.629 316.34C193.158 312.851 192.167 309.46 190.121 306.995L160.195 303.024C162.241 305.49 163.232 308.88 162.703 312.369Z" fill="#808183"/>
<path d="M160.195 303.024L190.121 306.995C188.538 305.089 186.327 303.734 183.7 303.323C183.616 303.309 183.532 303.298 183.444 303.288L153.518 299.317C153.603 299.328 153.687 299.342 153.774 299.352C156.401 299.764 158.612 301.118 160.195 303.024Z" fill="#858688"/>
</g>
<path d="M40.3401 106.572C36.5324 105.974 32.3813 107.666 29.593 111.45C28.3564 113.367 27.5752 115.354 27.26 117.419L0.153915 296.292C-0.550186 300.935 1.14528 305.419 4.07027 307.994L129.47 419.036C130.987 420.503 132.805 421.375 134.707 421.674C138.515 422.272 142.669 420.584 145.454 416.803C146.691 414.882 147.545 412.375 147.857 410.317L162.699 312.369C163.638 306.182 159.792 300.302 153.77 299.352C147.748 298.403 142.336 302.831 141.32 309.534L131.011 377.58C130.465 381.188 127.764 383.404 124.524 382.894C123.592 382.746 122.748 382.089 121.9 381.431L27.0218 297.358C24.0968 294.787 22.4013 290.296 23.1054 285.66L43.6504 150.082C44.1969 146.477 46.9047 144.265 50.1449 144.775C51.0697 144.919 51.914 145.58 52.7687 146.242L100.861 188.644C102.434 189.966 104.192 190.772 105.993 191.053C109.489 191.602 113.136 190.184 115.843 186.776C119.472 181.543 119.182 174.108 114.554 170.211L45.5771 109.217C44.0603 107.747 42.2422 106.875 40.3401 106.576V106.572Z" fill="white"/>
<mask id="mask23_3284_4239" style="mask-type:luminance" maskUnits="userSpaceOnUse" x="171" y="203" width="39" height="15">
<path d="M171.989 213.58L201.915 217.551C205.467 216 208.402 212.237 209.106 207.598L179.18 203.627C178.476 208.266 175.541 212.029 171.989 213.58Z" fill="white"/>
</mask>
<g mask="url(#mask23_3284_4239)">
<path d="M171.989 213.58L201.915 217.551C205.467 216 208.402 212.237 209.106 207.598L179.18 203.627C178.476 208.266 175.541 212.029 171.989 213.58Z" fill="#50B503" fill-opacity="0.7"/>
</g>
<path d="M179.181 203.627L209.111 207.598L227.936 83.3662L198.006 79.3954L179.181 203.627Z" fill="#50B503" fill-opacity="0.7"/>
<mask id="mask24_3284_4239" style="mask-type:luminance" maskUnits="userSpaceOnUse" x="188" y="65" width="41" height="19">
<path d="M198.006 79.3954L227.932 83.3662C228.948 76.6626 224.716 70.1911 218.698 69.245L188.772 65.2742C194.791 66.2203 199.022 72.6918 198.006 79.3954Z" fill="white"/>
</mask>
<g mask="url(#mask24_3284_4239)">
<path d="M198.006 79.3953L227.932 83.3662C228.517 79.5044 227.361 75.72 225.126 73.0223L195.2 69.0515C197.435 71.7456 198.595 75.5336 198.006 79.3953Z" fill="#50B503" fill-opacity="0.7"/>
<path d="M195.201 69.0516L225.127 73.0224C223.481 71.0387 221.253 69.6459 218.703 69.245L188.777 65.2742C191.327 65.6751 193.558 67.0679 195.201 69.0516Z" fill="#50B503" fill-opacity="0.7"/>
</g>
<path d="M188.772 65.2741C186.915 64.9822 184.988 65.2073 182.978 65.9459L144.35 83.0918C138.788 85.3779 135.838 92.3066 138.22 98.4897C139.488 102.524 142.613 105.239 146.214 105.805C148.063 106.097 150.036 105.823 151.952 104.87L165.165 99.0313C166.132 98.6761 167.106 98.5917 168.013 98.7359C169.94 99.0384 171.582 100.357 172.255 102.26C172.563 103.364 172.875 104.469 172.721 105.499L160.534 185.918C159.83 190.557 156.891 194.317 153.335 195.868L74.9983 231.043L78.9812 204.752C79.9971 198.052 76.1473 192.168 70.1257 191.218C64.1041 190.269 58.6955 194.7 57.6831 201.4L50.8103 246.764C49.7944 253.464 53.5636 259.862 59.5817 260.808C61.8972 261.174 64.2932 261.019 66.297 260.28L171.989 213.577C175.541 212.026 178.476 208.262 179.18 203.623L198.005 79.3918C199.021 72.6882 194.79 66.2167 188.772 65.2706V65.2741Z" fill="#9CDC00"/>
<path d="M106.69 294.09L136.619 298.061L205.222 267.684L175.292 263.713L106.69 294.09Z" fill="#398211"/>
<path d="M95.649 79.1211L125.575 83.0919L240.998 31.5873L211.072 27.6165L95.649 79.1211Z" fill="#7B7C7E"/>
<mask id="mask25_3284_4239" style="mask-type:luminance" maskUnits="userSpaceOnUse" x="175" y="262" width="36" height="6">
<path d="M210.743 266.974L180.817 263.003C178.933 262.753 176.992 262.975 175.297 263.713L205.222 267.684C206.918 266.945 208.859 266.724 210.743 266.974Z" fill="white"/>
</mask>
<g mask="url(#mask25_3284_4239)">
<path d="M175.293 263.713L205.219 267.684C206.914 266.945 208.855 266.724 210.739 266.974L180.813 263.003C178.929 262.753 176.988 262.975 175.293 263.713Z" fill="#398211"/>
</g>
<mask id="mask26_3284_4239" style="mask-type:luminance" maskUnits="userSpaceOnUse" x="184" y="235" width="32" height="5">
<path d="M214.88 239.653L184.954 235.682C185.045 235.692 185.136 235.706 185.227 235.72L215.153 239.691C215.062 239.677 214.971 239.663 214.88 239.653Z" fill="white"/>
</mask>
<g mask="url(#mask26_3284_4239)">
<path d="M185.227 235.72L215.153 239.691C215.062 239.677 214.971 239.663 214.88 239.653L184.954 235.682C185.045 235.692 185.136 235.706 185.227 235.72Z" fill="#4A6A22"/>
</g>
<mask id="mask27_3284_4239" style="mask-type:luminance" maskUnits="userSpaceOnUse" x="211" y="26" width="36" height="6">
<path d="M246.516 30.8733L216.59 26.9025C214.705 26.6528 212.764 26.8743 211.072 27.6129L240.998 31.5838C242.694 30.8452 244.635 30.6236 246.516 30.8733Z" fill="white"/>
</mask>
<g mask="url(#mask27_3284_4239)">
<path d="M211.072 27.6165L240.998 31.5873C242.694 30.8487 244.635 30.6271 246.516 30.8768L216.59 26.906C214.705 26.6563 212.764 26.8779 211.072 27.6165Z" fill="#808183"/>
</g>
<mask id="mask28_3284_4239" style="mask-type:luminance" maskUnits="userSpaceOnUse" x="220" y="0" width="31" height="5">
<path d="M250.578 4.06933L220.652 0.0985107C220.743 0.109062 220.835 0.123131 220.926 0.137199L250.852 4.10802C250.76 4.09395 250.669 4.07988 250.578 4.06933Z" fill="white"/>
</mask>
<g mask="url(#mask28_3284_4239)">
<path d="M220.926 0.137199L250.852 4.10802C250.76 4.09395 250.669 4.07988 250.578 4.06933L220.652 0.0985107C220.743 0.109062 220.835 0.123131 220.926 0.137199Z" fill="#858688"/>
</g>
<mask id="mask29_3284_4239" style="mask-type:luminance" maskUnits="userSpaceOnUse" x="185" y="235" width="36" height="8">
<path d="M190.552 238.144L220.478 242.115C219.013 240.827 217.122 240.004 215.153 239.695L185.227 235.724C187.196 236.034 189.087 236.86 190.552 238.144Z" fill="white"/>
</mask>
<g mask="url(#mask29_3284_4239)">
<path d="M190.552 238.144L220.478 242.115C219.013 240.827 217.122 240.004 215.153 239.695L185.227 235.724C187.196 236.034 189.087 236.86 190.552 238.144Z" fill="#398211"/>
</g>
<mask id="mask30_3284_4239" style="mask-type:luminance" maskUnits="userSpaceOnUse" x="220" y="0" width="37" height="7">
<path d="M226.251 2.5605L256.177 6.53132C254.713 5.24406 252.821 4.42105 250.852 4.11154L220.926 0.137207C222.895 0.446713 224.787 1.27323 226.251 2.55698V2.5605Z" fill="white"/>
</mask>
<g mask="url(#mask30_3284_4239)">
<path d="M226.251 2.5605L256.177 6.53132C254.713 5.24406 252.821 4.42105 250.852 4.11154L220.926 0.137207C222.895 0.446713 224.787 1.27323 226.251 2.55698" fill="#858688"/>
</g>
<mask id="mask31_3284_4239" style="mask-type:luminance" maskUnits="userSpaceOnUse" x="180" y="427" width="35" height="6">
<path d="M180.242 427.987L210.168 431.958C211.59 432.148 213.194 431.669 214.578 431.159L184.652 427.189C183.272 427.699 181.664 428.177 180.242 427.987Z" fill="white"/>
</mask>
<g mask="url(#mask31_3284_4239)">
<path d="M180.242 427.987L210.168 431.958C211.59 432.148 213.194 431.669 214.578 431.159L184.652 427.189C183.272 427.699 181.664 428.177 180.242 427.987Z" fill="#808183"/>
</g>
<mask id="mask32_3284_4239" style="mask-type:luminance" maskUnits="userSpaceOnUse" x="232" y="71" width="31" height="5">
<path d="M262.437 75.9028L232.511 71.932C232.591 71.9426 232.672 71.9531 232.749 71.9672L262.675 75.938C262.594 75.9239 262.517 75.9134 262.437 75.9028Z" fill="white"/>
</mask>
<g mask="url(#mask32_3284_4239)">
<path d="M232.749 71.9672L262.675 75.938C262.594 75.9239 262.517 75.9134 262.437 75.9028L232.511 71.932C232.591 71.9426 232.672 71.9531 232.749 71.9672Z" fill="#4A6A22"/>
</g>
<mask id="mask33_3284_4239" style="mask-type:luminance" maskUnits="userSpaceOnUse" x="194" y="387" width="32" height="8">
<path d="M195.372 390.874L225.298 394.845C224.993 393.744 224.685 392.64 224.842 391.606L194.917 387.635C194.759 388.669 195.067 389.774 195.372 390.874Z" fill="white"/>
</mask>
<g mask="url(#mask33_3284_4239)">
<path d="M195.372 390.874L225.298 394.845C224.993 393.744 224.685 392.64 224.842 391.606L194.917 387.635C194.759 388.669 195.067 389.774 195.372 390.874Z" fill="#808183"/>
</g>
<path d="M194.917 387.632L224.843 391.602L235.232 323.047L205.306 319.076L194.917 387.632Z" fill="#7D7E80"/>
<mask id="mask34_3284_4239" style="mask-type:luminance" maskUnits="userSpaceOnUse" x="196" y="305" width="40" height="19">
<path d="M226.121 309.478L196.195 305.507C196.279 305.518 196.363 305.532 196.451 305.542C202.472 306.488 206.322 312.369 205.306 319.076L235.232 323.047C236.248 316.34 232.398 310.463 226.377 309.513C226.293 309.499 226.205 309.488 226.121 309.474V309.478Z" fill="white"/>
</mask>
<g mask="url(#mask34_3284_4239)">
<path d="M205.306 319.076L235.232 323.047C235.813 319.213 234.805 315.651 232.706 313.125L202.78 309.154C204.875 311.68 205.887 315.243 205.306 319.076Z" fill="#808183"/>
<path d="M202.78 309.154L232.706 313.125C231.137 311.233 228.954 309.921 226.373 309.513C226.289 309.499 226.201 309.488 226.117 309.474L196.191 305.504C196.275 305.514 196.359 305.528 196.447 305.542C199.025 305.947 201.207 307.259 202.78 309.154Z" fill="#858688"/>
</g>
<mask id="mask35_3284_4239" style="mask-type:luminance" maskUnits="userSpaceOnUse" x="232" y="71" width="37" height="8">
<path d="M238.08 74.6472L268.006 78.618C266.461 77.1233 264.608 76.244 262.671 75.938L232.745 71.9672C234.682 72.2732 236.535 73.1489 238.08 74.6472Z" fill="white"/>
</mask>
<g mask="url(#mask35_3284_4239)">
<path d="M238.08 74.6472L268.006 78.618C266.461 77.1233 264.608 76.244 262.671 75.938L232.745 71.9672C234.682 72.2732 236.535 73.1489 238.08 74.6472Z" fill="#409A0F"/>
</g>
<path d="M223.889 196.441L253.815 200.412L266.002 119.997L236.072 116.026L223.889 196.441Z" fill="#398207"/>
<mask id="mask36_3284_4239" style="mask-type:luminance" maskUnits="userSpaceOnUse" x="195" y="390" width="35" height="9">
<path d="M199.751 394.416L229.677 398.387C229.635 398.38 229.589 398.376 229.547 398.369C227.621 398.067 225.978 396.748 225.302 394.845L195.376 390.874C196.052 392.774 197.695 394.093 199.621 394.399C199.663 394.406 199.709 394.413 199.751 394.416Z" fill="white"/>
</mask>
<g mask="url(#mask36_3284_4239)">
<path d="M199.751 394.416L229.677 398.387C229.635 398.38 229.589 398.376 229.547 398.369C228.241 398.165 227.067 397.494 226.233 396.488L196.307 392.517C197.141 393.519 198.315 394.191 199.621 394.398C199.663 394.406 199.709 394.413 199.751 394.416Z" fill="#858688"/>
<path d="M196.304 392.517L226.229 396.488C225.834 396.009 225.515 395.457 225.298 394.845L195.372 390.874C195.589 391.486 195.908 392.039 196.304 392.517Z" fill="#808183"/>
</g>
<mask id="mask37_3284_4239" style="mask-type:luminance" maskUnits="userSpaceOnUse" x="223" y="196" width="35" height="17">
<path d="M227.805 208.143L257.731 212.114C254.806 209.543 253.111 205.051 253.815 200.412L223.889 196.441C223.185 201.08 224.881 205.572 227.805 208.143Z" fill="white"/>
</mask>
<g mask="url(#mask37_3284_4239)">
<path d="M227.805 208.143L257.731 212.114C257.318 211.751 256.929 211.347 256.568 210.911L226.643 206.94C227.003 207.376 227.392 207.777 227.805 208.143Z" fill="#398207"/>
<path d="M226.639 206.944L256.565 210.914C254.373 208.269 253.21 204.397 253.812 200.416L223.886 196.445C223.284 200.43 224.447 204.302 226.639 206.944Z" fill="#398207"/>
</g>
<mask id="mask38_3284_4239" style="mask-type:luminance" maskUnits="userSpaceOnUse" x="236" y="110" width="37" height="10">
<path d="M272.35 114.665L242.424 110.694C239.25 110.272 236.616 112.47 236.076 116.026L266.002 119.997C266.542 116.441 269.176 114.243 272.35 114.665Z" fill="white"/>
</mask>
<g mask="url(#mask38_3284_4239)">
<path d="M236.072 116.026L265.998 119.997C266.538 116.441 269.172 114.243 272.346 114.665L242.42 110.694C239.246 110.272 236.612 112.47 236.072 116.026Z" fill="#398207"/>
</g>
<mask id="mask39_3284_4239" style="mask-type:luminance" maskUnits="userSpaceOnUse" x="230" y="353" width="36" height="6">
<path d="M230.065 354.923L259.991 358.893C261.774 359.129 263.665 358.841 265.501 357.926L235.575 353.955C233.739 354.87 231.848 355.158 230.065 354.923Z" fill="white"/>
</mask>
<g mask="url(#mask39_3284_4239)">
<path d="M230.065 354.923L259.991 358.893C261.774 359.129 263.665 358.841 265.501 357.926L235.575 353.955C233.739 354.87 231.848 355.158 230.065 354.923Z" fill="#398211"/>
</g>
<path d="M269.831 102.865L299.757 106.836L268.009 78.618L238.08 74.6472L269.831 102.865Z" fill="#409A0F"/>
<mask id="mask40_3284_4239" style="mask-type:luminance" maskUnits="userSpaceOnUse" x="261" y="119" width="40" height="10">
<path d="M261.234 124.108L291.16 128.079C294.8 128.561 298.593 127.049 300.958 123.915L271.032 119.944C268.664 123.078 264.87 124.59 261.234 124.108Z" fill="white"/>
</mask>
<g mask="url(#mask40_3284_4239)">
<path d="M261.234 124.108L291.16 128.079C294.8 128.561 298.593 127.049 300.958 123.915L271.032 119.944C268.664 123.078 264.87 124.59 261.234 124.108Z" fill="#409A0F"/>
</g>
<mask id="mask41_3284_4239" style="mask-type:luminance" maskUnits="userSpaceOnUse" x="259" y="172" width="36" height="6">
<path d="M259.025 173.165L288.951 177.136C290.737 177.372 292.629 177.083 294.468 176.169L264.542 172.198C262.703 173.112 260.808 173.401 259.025 173.165Z" fill="white"/>
</mask>
<g mask="url(#mask41_3284_4239)">
<path d="M259.025 173.165L288.951 177.136C290.737 177.372 292.629 177.083 294.468 176.169L264.542 172.198C262.703 173.112 260.808 173.401 259.025 173.165Z" fill="#808183"/>
</g>
<mask id="mask42_3284_4239" style="mask-type:luminance" maskUnits="userSpaceOnUse" x="269" y="102" width="35" height="22">
<path d="M271.036 119.944L300.962 123.915C304.598 118.681 303.841 111.172 299.757 106.836L269.831 102.865C273.915 107.202 274.672 114.711 271.036 119.944Z" fill="white"/>
</mask>
<g mask="url(#mask42_3284_4239)">
<path d="M271.036 119.944L300.962 123.915C304.447 118.896 303.894 111.788 300.244 107.388L270.318 103.417C273.968 107.817 274.521 114.929 271.036 119.944Z" fill="#409A0F"/>
<path d="M270.317 103.417L300.243 107.388C300.086 107.198 299.924 107.015 299.756 106.836L269.83 102.865C269.998 103.044 270.163 103.227 270.317 103.417Z" fill="#409A0F"/>
</g>
<mask id="mask43_3284_4239" style="mask-type:luminance" maskUnits="userSpaceOnUse" x="274" y="216" width="37" height="6">
<path d="M274.616 217.287L304.542 221.258C306.328 221.494 308.22 221.205 310.056 220.291L280.13 216.32C278.294 217.235 276.399 217.523 274.616 217.287Z" fill="white"/>
</mask>
<g mask="url(#mask43_3284_4239)">
<path d="M274.616 217.287L304.542 221.258C306.328 221.494 308.22 221.205 310.056 220.291L280.13 216.32C278.294 217.235 276.399 217.523 274.616 217.287Z" fill="#808183"/>
</g>
<path d="M235.575 353.955L265.501 357.926L304.136 340.777L274.206 336.806L235.575 353.955Z" fill="#398211"/>
<path d="M277.488 315.155L307.414 319.125L220.477 242.115L190.551 238.144L277.488 315.155Z" fill="#398211"/>
<path d="M185.227 235.72C183.258 235.411 181.212 235.615 179.433 236.392L73.7444 283.096C68.1011 285.903 65.1621 292.831 67.0011 299.454C67.6142 301.659 68.7666 303.425 70.4656 304.747L102.297 332.448C103.782 333.697 105.488 334.439 107.24 334.713C110.95 335.297 114.859 333.792 117.279 330.581C120.919 325.354 120.155 317.842 115.997 314.018L105.131 304.392C102.588 302.408 102.287 298.139 104.525 295.853C105.145 294.896 106.154 294.527 106.693 294.087L175.296 263.713C177.072 262.936 179.121 262.732 181.09 263.041C183.058 263.351 184.95 264.177 186.414 265.461L242.83 315.506C245.376 317.49 245.755 321.243 243.898 324.116C243.271 325.073 242.192 325.959 241.187 326.328L227.977 332.167C222.411 334.456 219.472 341.385 221.85 347.558C223.118 351.599 226.247 354.318 229.848 354.884C231.694 355.176 233.666 354.901 235.575 353.948L274.206 336.799C279.839 333.992 282.792 327.067 280.949 320.444C280.336 318.235 279.18 316.473 277.488 315.147L190.551 238.133C189.087 236.846 187.195 236.023 185.227 235.713V235.72Z" fill="#9CDC00"/>
<mask id="mask44_3284_4239" style="mask-type:luminance" maskUnits="userSpaceOnUse" x="274" y="315" width="38" height="26">
<path d="M274.207 336.806L304.133 340.777C309.765 337.97 312.718 331.045 310.876 324.422C310.263 322.213 309.107 320.451 307.415 319.125L277.489 315.155C279.181 316.477 280.34 318.243 280.95 320.451C282.792 327.074 279.839 333.999 274.207 336.806Z" fill="white"/>
</mask>
<g mask="url(#mask44_3284_4239)">
<path d="M274.207 336.806L304.133 340.777C309.765 337.97 312.718 331.045 310.876 324.422C310.466 322.941 309.807 321.661 308.911 320.578L278.985 316.607C279.881 317.69 280.54 318.971 280.95 320.451C282.792 327.074 279.839 333.999 274.207 336.806Z" fill="#398211"/>
<path d="M278.985 316.607L308.911 320.578C308.47 320.047 307.972 319.561 307.415 319.129L277.489 315.158C278.046 315.594 278.547 316.076 278.985 316.607Z" fill="#398211"/>
</g>
<path d="M291.7 265.169L321.626 269.14L257.732 212.114L227.806 208.143L291.7 265.169Z" fill="#398207"/>
<mask id="mask45_3284_4239" style="mask-type:luminance" maskUnits="userSpaceOnUse" x="296" y="294" width="42" height="9">
<path d="M296.902 298.434L326.828 302.405C330.534 302.897 334.51 301.311 337.165 297.973L307.239 294.003C304.587 297.34 300.611 298.927 296.902 298.434Z" fill="white"/>
</mask>
<g mask="url(#mask45_3284_4239)">
<path d="M296.902 298.434L326.828 302.405C330.534 302.897 334.51 301.311 337.165 297.973L307.239 294.003C304.587 297.34 300.611 298.927 296.902 298.434Z" fill="#398211"/>
</g>
<mask id="mask46_3284_4239" style="mask-type:luminance" maskUnits="userSpaceOnUse" x="307" y="287" width="34" height="11">
<path d="M307.239 294.003L337.165 297.973C338.867 296.13 339.638 294.14 340.03 291.562L310.104 287.591C309.712 290.169 308.941 292.16 307.239 294.003Z" fill="white"/>
</mask>
<g mask="url(#mask46_3284_4239)">
<path d="M307.239 294.003L337.165 297.973C338.867 296.13 339.638 294.14 340.03 291.562L310.104 287.591C309.712 290.169 308.941 292.16 307.239 294.003Z" fill="#398211"/>
</g>
<path d="M310.105 287.591L340.031 291.562L346.907 246.202L316.978 242.231L310.105 287.591Z" fill="#398211"/>
<path d="M232.749 71.9672C228.973 71.3728 224.885 72.9555 222.177 76.3636C220.933 78.2769 219.697 80.1973 219.308 82.7718L200.483 207.007C199.779 211.646 201.471 216.134 204.399 218.705L291.34 295.722C292.881 297.217 294.734 298.093 296.671 298.399C300.444 298.993 304.535 297.414 307.247 294.003C308.949 292.16 309.72 290.169 310.112 287.591L316.985 242.231C318.001 235.527 314.155 229.646 308.133 228.697C302.111 227.747 296.703 232.175 295.69 238.879L291.708 265.169L227.813 208.143C224.888 205.572 223.193 201.08 223.897 196.441L236.084 116.026C236.63 112.414 239.342 110.205 242.578 110.715C243.503 110.859 244.351 111.524 245.202 112.185L256.065 121.808C257.55 123.057 259.256 123.799 261.007 124.073C264.717 124.657 268.63 123.148 271.047 119.944C274.683 114.711 273.926 107.202 269.842 102.865L238.091 74.6473C236.546 73.1525 234.693 72.2732 232.756 71.9672H232.749Z" fill="#9CDC00"/>
<mask id="mask47_3284_4239" style="mask-type:luminance" maskUnits="userSpaceOnUse" x="307" y="228" width="41" height="19">
<path d="M337.799 232.632L307.873 228.662C307.957 228.672 308.041 228.686 308.129 228.697C314.151 229.643 317.997 235.527 316.981 242.231L346.907 246.201C347.923 239.498 344.077 233.617 338.055 232.668C337.971 232.654 337.887 232.643 337.799 232.632Z" fill="white"/>
</mask>
<g mask="url(#mask47_3284_4239)">
<path d="M316.978 242.231L346.904 246.201C347.485 242.368 346.476 238.805 344.378 236.276L314.452 232.305C316.547 234.831 317.559 238.397 316.978 242.231Z" fill="#398211"/>
<path d="M314.452 232.305L344.378 236.276C342.809 234.384 340.63 233.076 338.052 232.668C337.967 232.654 337.883 232.643 337.796 232.632L307.87 228.662C307.954 228.672 308.038 228.686 308.126 228.697C310.704 229.101 312.883 230.413 314.452 232.305Z" fill="#398211"/>
</g>
<path d="M280.13 216.32L310.059 220.291L367.925 195.087L337.995 191.116L280.13 216.32Z" fill="#7B7C7E"/>
<mask id="mask48_3284_4239" style="mask-type:luminance" maskUnits="userSpaceOnUse" x="337" y="190" width="34" height="6">
<path d="M370.644 194.774L340.718 190.803C339.845 190.687 338.921 190.779 337.999 191.117L367.925 195.087C368.847 194.75 369.771 194.658 370.644 194.774Z" fill="white"/>
</mask>
<g mask="url(#mask48_3284_4239)">
<path d="M337.995 191.117L367.921 195.087C368.843 194.75 369.767 194.658 370.64 194.774L340.714 190.803C339.841 190.687 338.917 190.779 337.995 191.117Z" fill="#808183"/>
</g>
<path d="M264.545 172.201L294.471 176.172L378.29 139.218L348.361 135.247L264.545 172.201Z" fill="#7B7C7E"/>
<path d="M351.643 113.596L381.569 117.567L256.177 6.53125L226.251 2.56042L351.643 113.596Z" fill="#87888A"/>
<path d="M220.926 0.13722C218.958 -0.172286 216.912 0.0317067 215.136 0.808989L62.7072 68.1301C57.0709 70.9367 54.1249 77.8619 55.9639 84.4846C56.577 86.6934 57.7365 88.459 59.4249 89.7814L128.409 150.775C129.982 152.098 131.74 152.903 133.541 153.184C137.037 153.733 140.683 152.316 143.391 148.908C147.02 143.674 146.73 136.239 142.102 132.342L94.0098 89.9432C91.4631 87.956 91.1689 83.6863 92.9449 81.3298C93.5684 80.3696 94.5703 80.0038 95.6527 79.114L211.076 27.6059C212.852 26.8286 214.898 26.6246 216.866 26.9341C218.835 27.2436 220.727 28.0701 222.191 29.3539L316.992 113.937C319.528 115.921 319.833 120.19 317.51 122.994C316.894 123.95 315.892 124.323 315.353 124.766L256.94 150.406C251.385 152.699 248.435 159.624 250.817 165.804C252.085 169.841 255.21 172.557 258.814 173.123C260.664 173.415 262.636 173.141 264.549 172.187L348.365 135.237C354.008 132.43 356.957 125.505 355.115 118.882C354.502 116.673 353.346 114.911 351.647 113.585L226.251 2.56051C224.786 1.27325 222.895 0.450243 220.926 0.140737V0.13722Z" fill="white"/>
<mask id="mask49_3284_4239" style="mask-type:luminance" maskUnits="userSpaceOnUse" x="348" y="113" width="38" height="27">
<path d="M348.361 135.247L378.286 139.218C383.93 136.411 386.879 129.486 385.037 122.863C384.424 120.655 383.268 118.892 381.569 117.567L351.643 113.596C353.342 114.922 354.498 116.684 355.111 118.892C356.953 125.512 354.004 132.44 348.361 135.247Z" fill="white"/>
</mask>
<g mask="url(#mask49_3284_4239)">
<path d="M348.361 135.247L378.286 139.218C383.93 136.411 386.879 129.486 385.037 122.863C384.627 121.386 383.972 120.106 383.075 119.023L353.149 115.052C354.046 116.135 354.701 117.412 355.111 118.892C356.953 125.512 354.004 132.44 348.361 135.247Z" fill="#808183"/>
<path d="M353.149 115.055L383.075 119.026C382.634 118.492 382.129 118.006 381.569 117.57L351.643 113.599C352.203 114.035 352.708 114.524 353.149 115.055Z" fill="#858688"/>
</g>
<mask id="mask50_3284_4239" style="mask-type:luminance" maskUnits="userSpaceOnUse" x="361" y="156" width="31" height="5">
<path d="M391.367 160.778L361.441 156.807C361.521 156.818 361.602 156.828 361.682 156.842L391.608 160.813C391.528 160.799 391.447 160.788 391.367 160.778Z" fill="white"/>
</mask>
<g mask="url(#mask50_3284_4239)">
<path d="M361.679 156.842L391.604 160.813C391.524 160.799 391.443 160.788 391.363 160.778L361.437 156.807C361.517 156.818 361.598 156.828 361.679 156.842Z" fill="#858688"/>
</g>
<path d="M184.652 427.189L214.578 431.159L366.548 363.765L336.618 359.794L184.652 427.189Z" fill="#7B7C7E"/>
<mask id="mask51_3284_4239" style="mask-type:luminance" maskUnits="userSpaceOnUse" x="336" y="349" width="38" height="15">
<path d="M336.619 359.794L366.545 363.764C370.097 362.213 373.039 358.457 373.743 353.815L343.817 349.844C343.113 354.483 340.171 358.239 336.619 359.794Z" fill="white"/>
</mask>
<g mask="url(#mask51_3284_4239)">
<path d="M336.619 359.794L366.545 363.764C370.097 362.213 373.039 358.457 373.743 353.815L343.817 349.844C343.113 354.483 340.171 358.239 336.619 359.794Z" fill="#808183"/>
</g>
<path d="M343.818 349.844L373.744 353.815L400.85 174.934L370.924 170.963L343.818 349.844Z" fill="#7D7E80"/>
<path d="M361.679 156.842C359.822 156.55 357.899 156.775 355.888 157.517L272.532 194.539C266.965 196.832 264.023 203.757 266.405 209.936C267.669 213.971 270.798 216.689 274.399 217.256C276.248 217.548 278.22 217.273 280.13 216.32L337.995 191.116C338.962 190.761 339.936 190.677 340.843 190.821C342.77 191.123 344.413 192.442 345.092 194.345C345.859 195.523 345.705 196.554 345.548 197.584L325.003 333.159C324.299 337.798 321.356 341.557 317.804 343.108L202.458 394.1C201.495 394.451 200.521 394.536 199.614 394.391C197.687 394.089 196.044 392.77 195.368 390.867C195.063 389.766 194.755 388.662 194.913 387.628L205.302 319.073C206.318 312.365 202.468 306.488 196.447 305.539C190.425 304.593 185.02 309.014 184.081 315.204L169.239 413.148C168.223 419.848 172.455 426.316 178.473 427.262C178.97 427.653 179.534 427.867 180.133 427.962C181.58 428.191 183.234 427.702 184.649 427.178L336.615 359.783C340.167 358.232 343.11 354.476 343.814 349.833L370.92 170.956C371.936 164.253 367.697 157.781 361.679 156.835V156.842Z" fill="white"/>
<mask id="mask52_3284_4239" style="mask-type:luminance" maskUnits="userSpaceOnUse" x="361" y="156" width="40" height="19">
<path d="M370.923 170.963L400.849 174.934C401.865 168.231 397.627 161.759 391.609 160.813L361.683 156.842C367.704 157.788 371.939 164.263 370.923 170.963Z" fill="white"/>
</mask>
<g mask="url(#mask52_3284_4239)">
<path d="M370.923 170.963L400.849 174.934C401.434 171.076 400.278 167.291 398.04 164.594L368.114 160.623C370.349 163.321 371.508 167.102 370.923 170.963Z" fill="#808183"/>
<path d="M368.114 160.627L398.04 164.597C396.394 162.61 394.159 161.217 391.605 160.813L361.679 156.842C364.233 157.243 366.464 158.639 368.114 160.627Z" fill="#858688"/>
</g>
</g>
<defs>
<clipPath id="clip0_3284_4239">
<rect width="401" height="432" fill="white" transform="matrix(-1 0 0 1 401 0)"/>
</clipPath>
</defs>
</svg>
